<?xml version="1.0" encoding="utf-8"?>
<!-- Generator: Adobe Illustrator 15.0.0, SVG Export Plug-In . SVG Version: 6.00 Build 0)  -->
<!DOCTYPE svg PUBLIC "-//W3C//DTD SVG 1.1//EN" "http://www.w3.org/Graphics/SVG/1.1/DTD/svg11.dtd">
<svg version="1.1" xmlns="http://www.w3.org/2000/svg" xmlns:xlink="http://www.w3.org/1999/xlink" x="0px" y="0px" width="1000px"
	 height="1000px" viewBox="0 0 1000 1000" enable-background="new 0 0 1000 1000" xml:space="preserve">
<g id="JM">
	<g>
		<g>
			<g>
				<path d="M200,667.007v-36.279c43.968,0,146.212-10.816,146.212-110.944V369.263h-105.33v-36.279h141.626v186.8
					C382.508,610.595,312.571,667.007,200,667.007z"/>
			</g>
			<g>
				<path d="M648.771,331.407l-67.972,151.523l-67.963-151.523L361.573,668.593H800L648.771,331.407z M417.615,632.305
					l95.221-212.245l48.065,107.201L513.78,632.305H417.615z M553.559,632.305l27.24-60.704l27.216,60.704H553.559z
					 M647.784,632.305L600.68,527.261l48.082-107.201l95.188,212.245H647.784z"/>
			</g>
		</g>
	</g>
</g>
<g id="Camera" display="none">
	<g display="inline">
		<g>
			<g>
				<path d="M800,375.617h-35.036l-9.439-33.885H654.028l-9.438,33.885h-11.356l-50.592-95.231H417.367l-50.592,95.231h-7.736
					v-33.885H231.398v33.885H200v302.777h181.529c32.524,25.781,73.618,41.219,118.338,41.219c44.728,0,85.821-15.438,118.35-41.219
					H800V375.617z M435.494,310.545H564.51l27.216,51.203c-27.254-15-58.551-23.565-91.858-23.565
					c-33.14,0-64.31,8.465-91.463,23.346L435.494,310.545z M339.31,528.906c0-26.053,6.282-50.647,17.331-72.432h58.045v83.393
					c0,42.039-32.541,55.631-58.901,59.762C345.254,578.281,339.31,554.277,339.31,528.906z M230.158,405.768h31.39v-33.885h67.333
					v33.885h25.404c-28.131,33.228-45.129,76.185-45.129,123.139c0,45.176,15.754,86.658,42.009,119.338H230.158V405.768z
					 M499.867,689.465c-55.524,0-104.561-28.363-133.4-71.33c42.861-9.248,68.323-37.494,68.323-78.268V436.373h-66.013
					c29.104-41.11,76.999-68.031,131.09-68.031c88.545,0,160.573,72.028,160.573,160.565c0,20.143-3.772,39.434-10.585,57.225
					l-67.56-150.625l-37.659,83.942l-37.641-83.942l-83.799,186.795h207.148C601.182,662.922,553.587,689.465,499.867,689.465z
					 M507.519,602.209h-53.282l52.75-117.592l26.634,59.381L507.519,602.209z M544.637,568.568l15.08,33.641h-30.163
					L544.637,568.568z M555.652,543.998l26.644-59.381l52.733,117.592h-53.277L555.652,543.998z M769.85,648.244H648.591
					c26.255-32.68,42.005-74.162,42.005-119.338c0-46.954-17.002-89.911-45.138-123.139h22.035l9.439-33.885h55.692l9.439,33.885
					h27.785V648.244z"/>
			</g>
		</g>
	</g>
</g>
<g id="Stacked" display="none">
	<g display="inline">
		<g>
			<path d="M576.908,650.17h30.916l-15.463-34.471L576.908,650.17z M582.508,646.549l9.854-21.98l9.853,21.98H582.508z"/>
			<polygon points="730.932,650.012 750.588,650.012 750.588,646.381 734.563,646.381 734.563,634.756 750.588,634.756 
				750.588,631.123 734.563,631.123 734.563,619.5 750.588,619.5 750.588,615.867 730.932,615.867 			"/>
			<path d="M315.07,615.887c-9.42,0-17.053,7.639-17.053,17.049c0,9.42,7.633,17.057,17.053,17.057s17.053-7.637,17.053-17.057
				C332.124,623.525,324.49,615.887,315.07,615.887z M315.07,646.125c-7.269,0-13.185-5.916-13.185-13.189
				c0-7.266,5.916-13.18,13.185-13.18s13.189,5.914,13.189,13.18C328.26,640.209,322.339,646.125,315.07,646.125z"/>
			<path d="M426.169,615.887c-9.415,0-17.048,7.639-17.048,17.049c0,9.42,7.633,17.057,17.048,17.057
				c9.425,0,17.058-7.637,17.058-17.057C443.227,623.525,435.594,615.887,426.169,615.887z M426.169,646.125
				c-7.264,0-13.185-5.916-13.185-13.189c0-7.266,5.921-13.18,13.185-13.18c7.274,0,13.189,5.914,13.189,13.18
				C439.358,640.209,433.443,646.125,426.169,646.125z"/>
			<path d="M500.773,631.055h-2.381H485.36v3.77h13.033c-0.921,6.379-6.408,11.301-13.033,11.301
				c-7.269,0-13.185-5.916-13.185-13.189c0-7.266,5.916-13.18,13.185-13.18c3.573,0,6.812,1.426,9.184,3.75l5.005,0.01
				c-3.046-4.598-8.258-7.629-14.189-7.629c-9.42,0-17.053,7.639-17.053,17.049c0,9.42,7.633,17.057,17.053,17.057
				c9.415,0,17.053-7.637,17.053-17.057c0-0.631-0.044-1.26-0.113-1.881H500.773z"/>
			<polygon points="368.739,615.848 357.204,615.848 357.204,619.617 368.739,619.617 368.739,650.033 372.509,650.033 
				372.509,619.617 384.041,619.617 384.041,615.848 372.509,615.848 			"/>
			<polygon points="269.162,631.055 253.187,631.055 253.187,615.848 249.412,615.848 249.412,650.033 253.187,650.033 
				253.187,634.824 269.162,634.824 269.162,650.033 272.937,650.033 272.937,615.848 269.162,615.848 			"/>
			<path d="M213.898,615.848h-10.124h-0.743H200v34.186h3.775v-13.328h10.124c5.749,0,10.434-4.676,10.434-10.424
				C224.332,620.523,219.647,615.848,213.898,615.848z M213.898,632.936h-10.124v-13.318h10.124c3.671,0,6.659,2.982,6.659,6.664
				C220.558,629.953,217.57,632.936,213.898,632.936z"/>
			<path d="M551.828,626.281c0-5.758-4.686-10.434-10.434-10.434h-10.129h-0.738h-3.031v34.186h3.77v-13.328h10.129
				c0.107,0,0.206-0.01,0.314-0.01l5.984,13.338h4.135l-6.359-14.166C549.199,634.283,551.828,630.582,551.828,626.281z
				 M541.395,632.936h-10.129v-13.318h10.129c3.671,0,6.653,2.982,6.653,6.664C548.048,629.953,545.065,632.936,541.395,632.936z"/>
			<path d="M800,626.281c0-5.758-4.686-10.434-10.434-10.434h-10.119h-0.748h-3.031v34.186h3.779v-13.328h10.119
				c0.108,0,0.217-0.01,0.315-0.01l5.984,13.338H800l-6.349-14.166C797.382,634.283,800,630.582,800,626.281z M789.566,632.936
				h-10.119v-13.318h10.119c3.672,0,6.664,2.982,6.664,6.664C796.23,629.953,793.238,632.936,789.566,632.936z"/>
			<polygon points="702.072,631.055 686.097,631.055 686.097,615.848 682.316,615.848 682.316,650.033 686.097,650.033 
				686.097,634.824 702.072,634.824 702.072,650.033 705.852,650.033 705.852,615.848 702.072,615.848 			"/>
			<path d="M646.803,615.848h-10.118h-0.748h-3.032v34.186h3.78v-13.328h10.118c5.748,0,10.434-4.676,10.434-10.424
				C657.236,620.523,652.551,615.848,646.803,615.848z M646.803,632.936h-10.118v-13.318h10.118c3.672,0,6.664,2.982,6.664,6.664
				C653.467,629.953,650.475,632.936,646.803,632.936z"/>
		</g>
		<g>
			<path d="M215.834,365.223h40.963v58.467c0,38.903-39.716,43.114-56.797,43.114v13.746c43.522,0,70.55-21.777,70.55-56.86v-72.213
				h-54.716V365.223z"/>
			<path d="M282.143,480.55h117.171l-58.577-130.603L282.143,480.55z M303.389,466.804l37.349-83.253l37.331,83.253H303.389z"/>
			<path d="M529.121,349.948l-26.322,58.684l-26.33-58.684l-58.59,130.603h169.824L529.121,349.948z M439.121,466.804l37.348-83.253
				l18.786,41.883l-18.554,41.37H439.121z M491.778,466.804l11.021-24.569l11.005,24.569H491.778z M528.888,466.804l-18.556-41.37
				l18.789-41.883l37.344,83.253H528.888z"/>
			<path d="M763.873,408.297h-28.416c-12.345,0-22.379-10.021-22.379-22.359c0-12.326,10.034-22.352,22.379-22.352h38.004v-13.756
				h-38.004c-19.921,0-36.131,16.205-36.131,36.107c0,19.914,16.21,36.119,36.131,36.119h28.416
				c12.332,0,22.369,10.057,22.369,22.388c0,12.334-10.037,22.359-22.369,22.359h-57.667v13.746h57.667
				c19.916,0,36.127-16.193,36.127-36.105C800,424.514,783.789,408.297,763.873,408.297z"/>
			<polygon points="606.274,480.55 680.752,480.55 680.752,466.804 620.021,466.804 620.021,422.747 680.752,422.747 
				680.752,408.991 620.021,408.991 620.021,364.934 680.752,364.934 680.752,351.179 606.274,351.179 			"/>
		</g>
		<g>
			<path d="M350.552,600.125h93.301l-46.655-104.002L350.552,600.125z M367.465,589.178l29.733-66.297l29.742,66.297H367.465z"/>
			<path d="M267.617,542.854l-20.962-46.731L200,600.125h135.235l-46.657-104.002L267.617,542.854z M216.913,589.178l29.742-66.297
				l14.958,33.35l-14.777,32.947H216.913z M258.847,589.178l8.77-19.566l8.771,19.566H258.847z M288.39,589.178l-14.776-32.947
				l14.965-33.35l29.733,66.297H288.39z"/>
			<polygon points="800,507.439 800,496.482 740.686,496.482 740.686,599.514 800,599.514 800,588.561 751.643,588.561 
				751.643,553.477 800,553.477 800,542.52 751.643,542.52 751.643,507.439 			"/>
			<polygon points="518.482,588.693 470.125,588.693 470.125,496.607 459.17,496.607 459.17,599.641 518.482,599.641 			"/>
			<path d="M571.913,496.607c-28.422,0-51.455,23.042-51.455,51.454c0,28.422,23.033,51.453,51.455,51.453
				c28.42,0,51.453-23.031,51.453-51.453C623.366,519.648,600.333,496.607,571.913,496.607z M571.913,587.842
				c-21.937,0-39.784-17.846-39.784-39.781s17.848-39.781,39.784-39.781s39.784,17.846,39.784,39.781
				S593.85,587.842,571.913,587.842z"/>
			<polygon points="652.146,599.514 652.146,527.359 711.248,599.514 722.938,599.514 722.938,496.482 711.905,496.482 
				711.905,582.904 641.113,496.482 641.113,599.514 			"/>
		</g>
	</g>
</g>
<g id="Horizontal" display="none">
	<g display="inline">
		<path d="M206.745,455.96h17.449v24.906c0,16.571-16.918,18.365-24.194,18.365v5.856c18.54,0,30.053-9.277,30.053-24.221v-30.762
			h-23.308V455.96z"/>
		<path d="M234.991,505.088h49.912l-24.952-55.634L234.991,505.088z M244.042,499.232l15.91-35.464l15.902,35.464H244.042z"/>
		<path d="M340.198,449.454l-11.213,24.999l-11.215-24.999l-24.958,55.634h72.341L340.198,449.454z M301.86,499.232l15.91-35.464
			l8.002,17.842l-7.903,17.622H301.86z M324.291,499.232l4.694-10.466l4.688,10.466H324.291z M340.099,499.232l-7.904-17.622
			l8.003-17.842l15.908,35.464H340.099z"/>
		<path d="M440.197,474.31h-12.105c-5.258,0-9.532-4.27-9.532-9.525c0-5.251,4.274-9.521,9.532-9.521h16.189v-5.86h-16.189
			c-8.485,0-15.391,6.902-15.391,15.381c0,8.483,6.905,15.386,15.391,15.386h12.105c5.253,0,9.529,4.285,9.529,9.536
			c0,5.256-4.275,9.525-9.529,9.525h-24.565v5.856h24.565c8.484,0,15.389-6.898,15.389-15.381
			C455.586,481.217,448.681,474.31,440.197,474.31z"/>
		<polygon points="373.064,505.088 404.789,505.088 404.789,499.232 378.919,499.232 378.919,480.465 404.789,480.465 
			404.789,474.605 378.919,474.605 378.919,455.838 404.789,455.838 404.789,449.978 373.064,449.978 		"/>
		<path d="M576.988,550.596h30.413l-15.207-33.898L576.988,550.596z M582.5,547.029l9.694-21.611l9.691,21.611H582.5z"/>
		<polygon points="731.168,550.439 750.503,550.439 750.503,546.869 734.741,546.869 734.741,535.434 750.503,535.434 
			750.503,531.861 734.741,531.861 734.741,520.426 750.503,520.426 750.503,516.854 731.168,516.854 		"/>
		<path d="M314.974,516.875c-9.267,0-16.774,7.51-16.774,16.771c0,9.266,7.508,16.773,16.774,16.773
			c9.263,0,16.77-7.508,16.77-16.773C331.744,524.385,324.237,516.875,314.974,516.875z M314.974,546.613
			c-7.152,0-12.97-5.816-12.97-12.967s5.817-12.967,12.97-12.967c7.148,0,12.968,5.816,12.968,12.967
			S322.123,546.613,314.974,546.613z"/>
		<path d="M426.04,516.875c-9.263,0-16.771,7.51-16.771,16.771c0,9.266,7.508,16.773,16.771,16.773
			c9.266,0,16.773-7.508,16.773-16.773C442.813,524.385,435.306,516.875,426.04,516.875z M426.04,546.613
			c-7.149,0-12.969-5.816-12.969-12.967s5.82-12.967,12.969-12.967c7.151,0,12.969,5.816,12.969,12.967
			S433.191,546.613,426.04,546.613z"/>
		<path d="M500.313,531.791h-2.341h-12.821v3.709h12.821c-0.905,6.273-6.302,11.113-12.821,11.113
			c-7.149,0-12.969-5.816-12.969-12.967s5.82-12.967,12.969-12.967c3.515,0,6.702,1.41,9.035,3.689l4.923,0.006
			c-2.999-4.52-8.125-7.5-13.958-7.5c-9.264,0-16.771,7.51-16.771,16.771c0,9.266,7.508,16.773,16.771,16.773
			s16.774-7.508,16.774-16.773c0-0.627-0.041-1.246-0.109-1.855H500.313z"/>
		<polygon points="368.653,516.834 357.311,516.834 357.311,520.545 368.653,520.545 368.653,550.461 372.364,550.461 
			372.364,520.545 383.704,520.545 383.704,516.834 372.364,516.834 		"/>
		<polygon points="268.923,531.791 253.207,531.791 253.207,516.834 249.497,516.834 249.497,550.461 253.207,550.461 
			253.207,535.5 268.923,535.5 268.923,550.461 272.634,550.461 272.634,516.834 268.923,516.834 		"/>
		<path d="M213.667,516.834h-9.957h-0.732H200v33.627h3.71v-13.105h9.957c5.658,0,10.263-4.602,10.263-10.26
			C223.93,521.439,219.325,516.834,213.667,516.834z M213.667,533.646h-9.957v-13.102h9.957c3.614,0,6.552,2.938,6.552,6.551
			C220.22,530.707,217.281,533.646,213.667,533.646z"/>
		<path d="M551.422,527.096c0-5.656-4.605-10.262-10.262-10.262h-9.959h-0.731h-2.979v33.627h3.71v-13.105h9.959
			c0.106,0,0.208-0.008,0.312-0.014l5.884,13.119h4.066l-6.247-13.926C548.842,534.971,551.422,531.328,551.422,527.096z
			 M541.16,533.646h-9.959v-13.102h9.959c3.613,0,6.552,2.938,6.552,6.551C547.712,530.707,544.773,533.646,541.16,533.646z"/>
		<path d="M800,527.096c0-5.656-4.605-10.262-10.263-10.262h-9.958h-0.731h-2.979v33.627h3.711v-13.105h9.958
			c0.106,0,0.208-0.008,0.31-0.014l5.886,13.119H800l-6.247-13.926C797.423,534.971,800,531.328,800,527.096z M789.737,533.646
			h-9.958v-13.102h9.958c3.614,0,6.551,2.938,6.551,6.551C796.288,530.707,793.352,533.646,789.737,533.646z"/>
		<polygon points="701.89,531.791 686.175,531.791 686.175,516.834 682.464,516.834 682.464,550.461 686.175,550.461 686.175,535.5 
			701.89,535.5 701.89,550.461 705.602,550.461 705.602,516.834 701.89,516.834 		"/>
		<path d="M646.636,516.834h-9.957h-0.731h-2.979v33.627h3.711v-13.105h9.957c5.658,0,10.263-4.602,10.263-10.26
			C656.898,521.439,652.294,516.834,646.636,516.834z M646.636,533.646h-9.957v-13.102h9.957c3.614,0,6.552,2.938,6.552,6.551
			C653.188,530.707,650.25,533.646,646.636,533.646z"/>
		<path d="M559.578,505.062h49.909l-24.957-55.633L559.578,505.062z M568.626,499.207l15.904-35.463l15.91,35.463H568.626z"/>
		<path d="M515.214,474.427l-11.213-24.998l-24.958,55.633h72.341l-24.958-55.633L515.214,474.427z M488.091,499.207l15.91-35.463
			l8.001,17.84l-7.904,17.623H488.091z M510.522,499.207l4.691-10.466l4.691,10.466H510.522z M526.326,499.207l-7.904-17.623
			l8.005-17.84l15.905,35.463H526.326z"/>
		<polygon points="800,455.483 800,449.623 768.271,449.623 768.271,504.736 800,504.736 800,498.876 774.133,498.876 
			774.133,480.11 800,480.11 800,474.249 774.133,474.249 774.133,455.483 		"/>
		<polygon points="649.409,498.948 623.542,498.948 623.542,449.688 617.682,449.688 617.682,504.803 649.409,504.803 		"/>
		<path d="M677.99,449.688c-15.203,0-27.524,12.326-27.524,27.524c0,15.203,12.321,27.524,27.524,27.524
			s27.524-12.321,27.524-27.524C705.515,462.014,693.193,449.688,677.99,449.688z M677.99,498.493
			c-11.733,0-21.281-9.547-21.281-21.28s9.548-21.279,21.281-21.279c11.734,0,21.282,9.546,21.282,21.279
			S689.725,498.493,677.99,498.493z"/>
		<polygon points="720.909,504.736 720.909,466.14 752.524,504.736 758.778,504.736 758.778,449.623 752.876,449.623 
			752.876,495.852 715.008,449.623 715.008,504.736 		"/>
	</g>
</g>
<g id="Handle" display="none">
	<g display="inline">
		<g>
			<path d="M584.989,521.135h42.432l-21.218-47.299L584.989,521.135z M592.682,516.155l13.521-30.15l13.526,30.15H592.682z"/>
			<path d="M545.617,495.089l-9.534-21.253l-21.219,47.299h61.504l-21.219-47.299L545.617,495.089z M522.557,516.155l13.526-30.15
				l6.802,15.167l-6.719,14.983H522.557z M541.628,516.155l3.989-8.897l3.988,8.897H541.628z M555.063,516.155l-6.72-14.983
				l6.806-15.167l13.522,30.15H555.063z"/>
			<polygon points="800,478.866 800,473.836 772.77,473.836 772.77,521.135 800,521.135 800,516.106 777.801,516.106 
				777.801,500.001 800,500.001 800,494.971 777.801,494.971 777.801,478.866 			"/>
			<polygon points="664.254,516.11 642.055,516.11 642.055,473.836 637.025,473.836 637.025,521.135 664.254,521.135 			"/>
			<path d="M692.347,473.836c-13.062,0-23.649,10.592-23.649,23.65c0,13.062,10.587,23.648,23.649,23.648
				c13.063,0,23.65-10.586,23.65-23.648C715.997,484.428,705.41,473.836,692.347,473.836z M692.347,515.771
				c-10.081,0-18.285-8.203-18.285-18.285s8.204-18.284,18.285-18.284c10.083,0,18.287,8.202,18.287,18.284
				S702.43,515.771,692.347,515.771z"/>
			<polygon points="730.665,521.135 730.665,488.012 757.798,521.135 763.166,521.135 763.166,473.836 758.1,473.836 758.1,513.511 
				725.602,473.836 725.602,521.135 			"/>
		</g>
		<g>
			<g>
				<path d="M368.471,521.135h42.435l-21.214-47.299L368.471,521.135z M376.166,516.156l13.526-30.151l13.519,30.151H376.166z"/>
				<path d="M273.285,521.135l9.533-21.254l9.536,21.254l21.219-47.299h-61.503L273.285,521.135z M305.879,478.814l-13.526,30.149
					l-6.804-15.168l6.719-14.981H305.879z M286.809,478.814l-3.991,8.897l-3.986-8.897H286.809z M273.369,478.814l6.72,14.981
					l-6.805,15.168l-13.524-30.149H273.369z"/>
				<polygon points="445.687,494.875 423.58,494.875 423.58,473.836 418.36,473.836 418.36,521.135 423.58,521.135 423.58,500.092 
					445.687,500.092 445.687,521.135 450.907,521.135 450.907,473.836 445.687,473.836 				"/>
				<path d="M340.806,473.836c-13.062,0-23.649,10.592-23.649,23.649c0,13.062,10.587,23.649,23.649,23.649
					c13.063,0,23.65-10.587,23.65-23.649C364.457,484.428,353.87,473.836,340.806,473.836z M340.806,515.771
					c-10.081,0-18.285-8.203-18.285-18.285s8.204-18.283,18.285-18.283c10.083,0,18.287,8.201,18.287,18.283
					S350.889,515.771,340.806,515.771z"/>
			</g>
			<g>
				<path d="M247.299,497.485c0-13.04-10.609-23.649-23.649-23.649c-13.041,0-23.649,10.609-23.649,23.649
					c0,13.041,10.609,23.649,23.649,23.649c4.279,0,8.474-1.156,12.13-3.344l-2.498-4.173c-2.901,1.734-6.231,2.651-9.632,2.651
					c-10.358,0-18.784-8.427-18.784-18.784s8.426-18.784,18.784-18.784c10.358,0,18.784,8.427,18.784,18.784"/>
				<path d="M242.434,497.486c0,4.289-2.041,7.027-3.446,7.027c-1.405,0-3.445-2.738-3.445-7.027
					c0-6.558-5.335-11.893-11.893-11.893s-11.892,5.335-11.892,11.893s5.334,11.892,11.892,11.892c3.594,0,6.814-1.609,8.996-4.137
					c1.514,2.543,3.772,4.137,6.342,4.137c4.661,0,8.312-5.224,8.312-11.892 M223.649,504.514c-3.875,0-7.027-3.153-7.027-7.027
					c0-3.875,3.153-7.027,7.027-7.027s7.028,3.152,7.028,7.027C230.677,501.36,227.524,504.514,223.649,504.514z"/>
			</g>
		</g>
		<rect x="462.07" y="521.135" width="41.632" height="5.029"/>
	</g>
</g>
</svg>
